<svg xmlns="http://www.w3.org/2000/svg" viewBox="0 0 512 512">
  <defs>
    <linearGradient id="bg" x1="0" y1="0" x2="1" y2="1">
      <stop offset="0" stop-color="#15493A"/>
      <stop offset=".55" stop-color="#0E3528"/>
      <stop offset="1" stop-color="#0A1410"/>
    </linearGradient>
    <linearGradient id="mint" x1="0" y1="0" x2="1" y2="1">
      <stop offset="0" stop-color="#2DD4A0"/>
      <stop offset="1" stop-color="#16916B"/>
    </linearGradient>
  </defs>
  <rect width="512" height="512" rx="112" fill="url(#bg)"/>
  <circle cx="400" cy="110" r="150" fill="#2DD4A0" opacity=".12"/>
  <!-- paragon -->
  <path d="M166 118h180v250l-30-20-30 20-30-20-30 20-30-20-30 20V118Z" fill="url(#mint)" opacity=".95"/>
  <rect x="196" y="164" width="120" height="14" rx="7" fill="#06251A" opacity=".85"/>
  <rect x="196" y="200" width="120" height="14" rx="7" fill="#06251A" opacity=".6"/>
  <rect x="196" y="236" width="76" height="14" rx="7" fill="#06251A" opacity=".6"/>
  <!-- iskra AI -->
  <path d="M366 300l12 34 34 12-34 12-12 34-12-34-34-12 34-12 12-34Z" fill="#D8B878"/>
</svg>
